<?xml version="1.0" encoding="UTF-8" standalone="no"?>
<!DOCTYPE svg PUBLIC "-//W3C//DTD SVG 1.1//EN" "http://www.w3.org/Graphics/SVG/1.1/DTD/svg11.dtd">
<svg version="1.1" xmlns="http://www.w3.org/2000/svg" xmlns:xlink="http://www.w3.org/1999/xlink" preserveAspectRatio="xMidYMid meet" viewBox="0 0 640 640" width="640" height="640"><defs><path d="M320 383.78L320 251.13L289.42 251.13L228.27 297.87L263.21 411.73L376.06 411.73L410.28 297.87L320 228.27L253.02 228.27L179.85 287.16L232.63 460.15L405.91 460.15L460.15 287.16L320 179.85L257.39 179.85L131.43 275.52L204.24 508.57L436.49 508.57L508.57 275.52L320 131.43L265.4 131.43L88.84 263.14L176.57 551.16L462.41 551.16L551.16 265.47L320 88.84L239.62 88.84L29.14 251.13L139.88 610.86L498.81 610.86L610.86 251.13L320 29.14" id="b6wFDZddB"></path></defs><g><g><g><g><use xlink:href="#b6wFDZddB" opacity="1" fill-opacity="0" stroke="#da471a" stroke-width="5" stroke-opacity="1"></use></g></g></g></g></svg>